<svg xmlns="http://www.w3.org/2000/svg" viewBox="0 0 39.75 39.75"><defs><linearGradient id="a" x1="-4.89" y1="-2.42" x2="33.5" y2="32.14" gradientUnits="userSpaceOnUse"><stop offset=".1" stop-color="#4dc0de"/><stop offset=".28" stop-color="#72cadb" stop-opacity=".8"/><stop offset=".7" stop-color="#cee6d5" stop-opacity=".31"/><stop offset="1" stop-color="#fcf8cd" stop-opacity="0"/></linearGradient></defs><rect width="39.75" height="39.75" rx="2.06" ry="2.06" style="fill:url(#a)"/><path d="M5.89 8.9h4.15v21.95H5.89V8.9ZM34.92 12.75 32 15.54c-1.99-2.1-4.23-3.15-6.71-3.15-2.1 0-3.87.72-5.3 2.15-1.44 1.43-2.16 3.2-2.16 5.3 0 1.46.32 2.76.95 3.9.64 1.14 1.54 2.03 2.7 2.67s2.46.97 3.88.97c1.21 0 2.32-.23 3.33-.68 1-.45 2.11-1.28 3.31-2.47l2.83 2.96c-1.62 1.58-3.15 2.68-4.6 3.29-1.44.61-3.09.92-4.94.92-3.41 0-6.21-1.08-8.38-3.25s-3.26-4.94-3.26-8.32c0-2.19.5-4.13 1.49-5.84.99-1.7 2.41-3.07 4.25-4.1 1.85-1.03 3.83-1.55 5.96-1.55 1.81 0 3.56.38 5.23 1.15s3.12 1.85 4.34 3.26Z" style="fill:#1d1d1b"/></svg>