<svg xmlns="http://www.w3.org/2000/svg" viewBox="0 0 82.89 61.58"><path d="M17.99 38.18c0 9.85 1.05 16.15 2.25 19.43-1.8 1.64-8.09 3.97-11.54 3.97-5.55 0-8.69-5.61-8.69-19.57C0 24.49 2.85 11.36 5.7 4.52 6.9 1.64 9.14 0 12.44 0c3.9 0 8.09 1.23 10.49 2.33-2.55 9.17-4.95 23.67-4.95 35.85ZM64.3 10.95c-7.04 0-14.39 7.53-14.39 21.48 0 11.49 6.15 16.83 14.39 16.83 6.59 0 11.84-3.01 14.84-6.29 1.35.41 2.4 2.6 2.4 3.97 0 7.66-8.99 13.96-22.78 13.96-16.94 0-28.33-10.81-28.33-26.82S45.12 0 64.45 0c11.39 0 18.44 4.79 18.44 11.22 0 4.11-3.75 7.94-10.04 8.62-1.2-4.65-4.05-8.89-8.54-8.89Z" style="fill:#1d1d1b"/></svg>