<?xml version="1.0" standalone="no"?>
<!DOCTYPE svg PUBLIC "-//W3C//DTD SVG 20010904//EN"
 "http://www.w3.org/TR/2001/REC-SVG-20010904/DTD/svg10.dtd">
<svg version="1.0" xmlns="http://www.w3.org/2000/svg"
 width="1328.000000pt" height="1328.000000pt" viewBox="0 0 1328.000000 1328.000000"
 preserveAspectRatio="xMidYMid meet">
<metadata>
Created by potrace 1.14, written by Peter Selinger 2001-2017
</metadata>
<g transform="translate(0.000000,1328.000000) scale(0.100000,-0.100000)"
fill="#000000" stroke="none">
<path d="M1849 11566 c-2 -2 -26 -7 -54 -10 -90 -12 -209 -44 -277 -75 -38
-17 -68 -27 -68 -24 0 3 -8 -1 -17 -9 -10 -8 -38 -26 -63 -40 -66 -38 -230
-176 -230 -193 0 -3 -10 -16 -23 -28 -27 -26 -137 -190 -137 -204 0 -6 -7 -16
-15 -23 -9 -7 -13 -15 -10 -18 3 -3 -1 -15 -8 -26 -18 -28 -87 -198 -87 -214
0 -6 -5 -12 -12 -12 -6 0 -9 -3 -6 -6 3 -3 -7 -38 -22 -78 -31 -80 -129 -370
-135 -399 -2 -9 -6 -21 -9 -25 -3 -5 -7 -19 -10 -33 -2 -13 -11 -43 -19 -66
-9 -22 -13 -44 -10 -47 4 -3 1 -6 -6 -6 -7 0 -10 -3 -7 -8 2 -4 -7 -45 -20
-91 -51 -176 -105 -392 -99 -400 3 -5 2 -11 -3 -13 -6 -2 -45 -153 -68 -263
-2 -11 -10 -51 -18 -90 -8 -38 -17 -81 -20 -95 -4 -14 -9 -41 -12 -60 -8 -47
-12 -65 -14 -65 -2 0 -10 -55 -12 -82 -1 -7 -5 -13 -10 -13 -5 0 -7 -4 -4 -9
5 -7 -4 -64 -28 -180 -3 -14 -8 -47 -11 -74 -3 -28 -8 -53 -9 -56 -2 -3 -7
-24 -10 -46 -4 -22 -11 -65 -16 -95 -15 -89 -19 -113 -25 -160 -3 -25 -7 -52
-10 -60 -2 -8 -7 -37 -10 -65 -3 -27 -7 -63 -10 -80 -3 -16 -7 -43 -10 -60 -3
-16 -7 -52 -10 -80 -4 -27 -8 -61 -10 -75 -2 -14 -7 -50 -11 -80 -3 -30 -8
-68 -10 -85 -2 -16 -7 -52 -9 -80 -3 -27 -7 -66 -9 -85 -3 -19 -7 -62 -11 -95
-4 -33 -8 -76 -10 -95 -3 -19 -7 -60 -10 -90 -2 -30 -7 -74 -10 -97 -5 -36 -8
-81 -20 -238 -1 -22 -4 -40 -5 -40 0 0 -3 -29 -5 -65 -2 -36 -6 -92 -9 -125
-4 -59 -16 -227 -21 -315 -2 -25 -6 -108 -10 -185 -3 -77 -8 -171 -10 -210
-26 -487 -26 -1531 0 -1860 3 -33 7 -96 10 -140 2 -44 5 -80 6 -80 1 0 3 -22
5 -50 2 -27 6 -63 8 -80 6 -37 17 -139 20 -185 2 -19 6 -44 9 -55 3 -11 9 -42
13 -70 13 -102 21 -148 34 -210 6 -27 13 -63 16 -80 3 -16 9 -46 14 -65 5 -19
11 -47 14 -62 2 -14 9 -36 16 -47 6 -12 9 -21 6 -21 -3 0 7 -39 20 -88 14 -48
28 -97 31 -110 3 -12 9 -25 14 -28 5 -3 9 -14 9 -25 0 -10 4 -27 9 -37 5 -9
21 -48 36 -87 29 -73 123 -266 134 -275 3 -3 15 -21 25 -40 30 -54 103 -148
170 -218 151 -158 333 -255 556 -296 71 -13 354 -15 405 -3 11 3 40 8 65 11
25 3 56 8 70 11 14 3 36 8 50 10 14 2 35 7 48 10 36 8 65 15 92 20 14 3 40 9
58 14 18 5 33 10 35 10 1 0 9 2 17 5 19 6 104 28 107 27 2 0 22 7 45 15 24 9
50 17 58 19 59 13 342 117 438 161 29 13 55 24 59 24 10 0 277 133 283 140 3
4 21 15 40 25 41 21 114 71 148 101 l24 22 -27 81 c-15 45 -28 87 -29 94 -2 7
-6 19 -9 27 -5 14 -17 59 -23 87 -1 6 -7 27 -13 45 -5 18 -12 44 -14 58 -2 14
-7 32 -10 40 -4 8 -9 29 -11 45 -2 17 -6 37 -9 45 -3 8 -8 29 -10 45 -3 17 -8
42 -11 58 -3 15 -8 39 -11 55 -2 15 -7 38 -10 52 -3 14 -7 41 -9 60 -3 19 -7
46 -10 59 -3 12 -8 42 -10 65 -3 22 -8 55 -12 71 -3 17 -7 44 -9 60 -8 85 -18
161 -21 167 -3 4 -7 37 -9 75 -3 37 -8 84 -11 103 -2 19 -7 60 -9 90 -3 30 -7
73 -10 95 -2 22 -7 81 -11 130 -3 50 -7 108 -9 130 -2 22 -6 90 -10 150 -3 61
-8 139 -10 175 -25 376 -25 1427 0 1840 2 36 6 113 10 172 3 60 7 132 10 160
2 29 7 91 10 138 3 47 8 108 11 135 2 28 7 77 9 110 2 33 6 80 9 105 3 25 7
72 10 105 3 33 8 83 12 110 3 28 7 75 9 105 2 30 4 55 5 55 1 0 3 11 4 25 5
42 17 152 23 200 3 25 6 61 8 80 2 19 4 35 5 35 1 0 3 16 5 35 1 19 5 55 9 80
3 25 8 65 11 90 8 57 14 101 20 145 3 19 7 50 9 68 8 63 17 122 21 147 2 14 7
48 11 75 3 28 8 59 10 70 2 10 6 37 9 60 8 54 51 324 65 405 7 36 13 74 14 85
2 11 6 34 10 50 4 17 8 46 10 66 2 19 6 44 9 55 4 10 9 34 12 52 11 71 14 88
19 117 5 28 8 43 21 105 5 29 13 71 21 120 3 19 7 37 9 40 2 3 6 25 10 50 4
24 11 52 15 61 5 9 7 19 4 21 -2 3 2 34 10 69 8 35 18 80 21 99 3 19 12 60 20
90 7 30 16 69 19 85 3 17 14 70 25 119 12 49 18 92 15 97 -3 5 -1 9 4 9 4 0
15 30 22 68 17 82 17 81 19 85 2 1 5 13 7 27 3 14 9 43 15 65 6 22 12 47 14
55 2 8 15 62 30 120 15 58 29 115 31 127 2 12 8 33 14 47 5 13 6 27 3 30 -4 3
-1 6 4 6 6 0 10 8 8 18 -1 9 1 22 6 27 4 6 9 27 11 48 l3 39 -110 45 c-133 54
-365 134 -365 126 0 -3 -6 -1 -12 5 -13 10 -86 28 -100 24 -5 -1 -8 3 -8 8 0
6 -6 10 -12 9 -7 -1 -20 0 -28 4 -17 6 -103 27 -140 33 -14 3 -34 8 -45 11
-11 4 -28 8 -37 9 -10 1 -20 3 -23 4 -7 3 -13 5 -70 15 -27 4 -54 9 -60 11 -5
1 -28 5 -50 8 -22 4 -53 9 -70 12 -16 3 -43 7 -60 9 -16 2 -52 6 -80 9 -27 4
-68 9 -90 12 -53 6 -451 15 -456 10z"/>
<path d="M10048 11565 c-2 -2 -43 -6 -93 -10 -49 -3 -101 -8 -115 -10 -23 -3
-135 -15 -185 -20 -11 -1 -39 -5 -63 -9 -23 -4 -52 -9 -65 -11 -49 -7 -104
-17 -137 -25 -19 -5 -51 -11 -70 -14 -19 -3 -50 -10 -67 -15 -18 -5 -33 -7
-33 -3 0 3 -5 1 -11 -5 -6 -6 -18 -9 -25 -6 -8 3 -14 1 -14 -3 0 -5 -10 -10
-22 -10 -28 -2 -79 -13 -90 -20 -4 -3 -16 -7 -25 -9 -74 -14 -429 -129 -508
-164 -11 -5 -51 -21 -90 -37 -38 -15 -95 -39 -125 -53 -30 -14 -57 -25 -60
-26 -3 0 -40 -17 -83 -38 -44 -20 -83 -37 -87 -37 -5 0 -10 -3 -12 -7 -1 -5
-32 -23 -68 -41 -36 -18 -96 -50 -135 -72 -38 -22 -77 -43 -85 -47 -28 -13
-256 -155 -287 -179 -17 -13 -34 -24 -37 -24 -7 0 -225 -157 -252 -181 -11
-11 -25 -19 -31 -19 -6 0 -13 -4 -15 -8 -4 -10 -169 -143 -185 -149 -7 -3 -10
-9 -7 -14 3 -5 1 -9 -4 -9 -5 0 -18 -8 -29 -17 -11 -10 -41 -36 -67 -58 -176
-151 -468 -448 -611 -621 -22 -27 -50 -59 -61 -71 -12 -12 -19 -24 -16 -27 3
-3 1 -6 -5 -6 -5 0 -23 -19 -40 -42 -17 -24 -40 -54 -52 -68 -28 -34 -27 -32
-102 -135 -111 -151 -159 -222 -159 -233 0 -6 -4 -12 -9 -14 -10 -4 -101 -145
-101 -157 0 -5 -3 -11 -8 -13 -19 -8 -193 -322 -290 -521 -40 -82 -72 -150
-72 -152 0 -2 -16 -38 -35 -79 -19 -42 -35 -82 -35 -89 0 -7 -4 -17 -9 -22 -9
-11 -84 -201 -87 -223 -1 -8 -6 -21 -10 -30 -4 -9 -8 -21 -9 -27 -2 -5 -12
-35 -22 -65 -11 -30 -28 -82 -38 -115 -9 -33 -21 -71 -26 -85 -20 -59 -88
-335 -103 -415 -3 -16 -8 -43 -11 -60 -4 -16 -8 -43 -10 -60 -1 -16 -5 -37 -9
-45 -3 -8 -8 -37 -10 -65 -2 -27 -7 -61 -10 -75 -3 -14 -8 -52 -11 -85 -3 -33
-8 -82 -11 -110 -3 -27 -6 -76 -7 -107 -1 -32 -4 -58 -8 -58 -8 0 -3 -45 6
-59 3 -6 3 -11 -2 -11 -4 0 -7 -91 -6 -202 3 -202 6 -269 18 -403 3 -39 8 -92
10 -120 2 -27 7 -65 10 -84 4 -19 9 -53 12 -75 9 -74 11 -87 29 -181 3 -16 7
-41 9 -55 13 -78 84 -359 104 -412 6 -16 8 -28 5 -28 -4 0 -1 -6 5 -14 6 -7
12 -25 13 -40 1 -14 5 -26 9 -26 4 0 10 -15 14 -32 11 -46 41 -131 76 -213 7
-16 13 -32 14 -35 22 -67 165 -363 177 -368 4 -2 8 -10 8 -18 0 -8 16 -40 35
-70 19 -30 36 -60 38 -67 2 -11 6 -18 35 -51 6 -8 12 -18 12 -21 0 -7 130
-203 154 -232 8 -10 40 -52 71 -93 55 -73 70 -92 183 -219 65 -73 163 -171
249 -251 104 -95 117 -106 320 -267 23 -18 46 -33 52 -33 6 0 11 -4 11 -8 0
-5 16 -17 35 -28 19 -10 35 -21 35 -25 0 -3 11 -11 25 -17 14 -7 31 -17 38
-22 28 -24 103 -70 114 -70 6 0 13 -4 15 -9 6 -16 332 -191 357 -191 6 0 11
-4 11 -10 0 -5 4 -10 10 -10 5 0 39 -14 75 -30 36 -17 68 -30 70 -30 3 0 28
-11 57 -25 28 -14 56 -25 61 -25 5 0 23 -7 40 -14 33 -15 261 -93 282 -96 3
-1 20 -7 40 -16 19 -8 38 -14 42 -14 5 0 33 -7 63 -16 30 -9 62 -17 70 -19 8
-2 51 -12 96 -24 44 -11 98 -23 120 -27 21 -3 42 -8 45 -10 4 -2 24 -6 45 -9
22 -4 46 -8 54 -10 8 -3 32 -7 54 -11 21 -3 48 -8 60 -10 11 -2 41 -7 66 -10
25 -3 56 -7 70 -10 23 -5 71 -10 145 -17 17 -2 35 -5 40 -8 6 -2 34 -4 62 -4
29 0 53 -2 53 -5 0 -3 29 -5 65 -4 36 0 65 -2 65 -5 0 -3 46 -7 103 -7 314 -5
388 -5 397 1 5 3 10 1 10 -5 0 -6 5 -8 11 -4 6 3 63 8 127 9 65 2 117 4 117 5
0 0 38 3 85 6 47 2 105 7 130 9 25 2 70 7 100 9 70 7 114 12 168 20 24 4 58 9
75 11 51 7 110 15 137 21 14 2 43 7 65 10 22 4 42 9 45 13 3 3 16 6 30 7 41 1
94 12 243 50 78 20 147 37 152 38 6 2 17 5 25 8 28 10 155 48 160 47 3 0 21 7
41 15 20 8 39 12 43 9 3 -4 6 -1 6 5 0 7 7 12 15 12 18 0 244 89 303 119 24
12 47 19 52 16 6 -3 10 -2 10 3 0 5 24 19 53 33 28 13 55 28 59 34 4 5 8 6 8
2 0 -5 13 1 29 12 15 11 31 18 35 14 3 -3 6 -1 6 5 0 5 10 14 23 19 12 4 48
24 80 43 32 19 66 40 75 45 46 28 107 71 110 78 2 4 10 7 18 7 8 0 14 4 14 9
0 5 8 12 18 15 9 3 31 19 49 36 18 16 35 30 38 30 21 0 315 280 315 300 0 5 7
10 15 10 8 0 15 4 15 9 0 11 80 113 97 124 7 4 13 13 13 19 0 6 11 26 25 44
14 18 25 37 25 42 0 6 3 12 8 14 23 10 163 301 177 368 2 8 4 15 5 15 2 0 3 5
30 110 11 44 22 96 25 115 33 263 21 378 -59 555 -45 97 -109 188 -180 256
-10 10 -42 30 -71 46 l-53 27 -74 -74 c-81 -82 -154 -149 -213 -195 -21 -16
-43 -35 -49 -40 -32 -30 -136 -105 -145 -105 -6 0 -11 -4 -11 -8 0 -4 -22 -21
-50 -37 -27 -16 -50 -32 -50 -35 0 -4 -16 -12 -35 -20 -19 -8 -35 -17 -35 -21
0 -4 -8 -9 -17 -12 -10 -4 -36 -17 -58 -31 -43 -27 -287 -149 -295 -148 -3 0
-16 -6 -30 -13 -14 -7 -45 -21 -70 -30 -25 -10 -56 -22 -70 -28 -14 -6 -27
-11 -30 -12 -54 -16 -220 -69 -235 -75 -11 -5 -31 -11 -45 -14 -14 -3 -54 -12
-90 -21 -36 -8 -76 -17 -90 -20 -14 -2 -36 -7 -50 -10 -47 -10 -85 -16 -125
-20 -22 -3 -51 -7 -65 -10 -32 -6 -124 -16 -172 -19 -20 -1 -39 -4 -43 -8 -3
-3 -21 -2 -40 2 -19 4 -37 5 -40 2 -7 -7 -325 -9 -325 -2 0 3 -24 5 -53 6 -62
1 -168 13 -205 23 -15 4 -39 7 -54 6 -16 -1 -28 2 -28 5 0 3 -8 6 -17 7 -10 1
-31 5 -48 8 -16 4 -42 9 -57 12 -16 3 -28 10 -28 15 0 5 -5 6 -10 3 -6 -3 -49
6 -98 21 -48 15 -89 28 -92 29 -64 20 -240 104 -360 172 -53 30 -172 113 -227
158 -45 37 -223 212 -269 266 -69 80 -185 255 -256 389 -64 122 -177 400 -161
400 3 0 1 6 -5 13 -9 10 -28 70 -37 117 -2 8 -4 15 -5 15 -1 0 -3 7 -14 50
-22 93 -29 124 -33 150 -6 39 -11 64 -18 95 -3 14 -8 39 -9 55 -4 32 -14 108
-22 165 -14 97 -25 317 -26 500 -1 154 8 416 17 485 2 17 7 66 11 110 9 106
12 130 14 130 1 0 3 16 5 35 3 36 8 73 26 175 5 33 12 74 14 90 3 17 7 41 11
55 3 14 8 39 11 55 2 17 8 35 12 40 3 6 6 22 5 38 0 15 4 27 9 27 6 0 8 3 5 6
-12 11 126 480 152 519 4 6 15 33 25 60 10 28 27 70 38 95 12 25 21 47 22 50
6 34 200 392 216 398 5 2 9 12 9 22 0 10 4 20 8 22 5 2 28 32 52 68 24 36 48
70 52 75 4 6 23 28 40 51 18 22 49 60 68 85 45 56 250 261 314 314 40 33 161
122 227 167 10 6 20 10 24 9 4 -2 11 2 14 8 10 15 205 113 296 149 83 32 184
62 270 81 46 10 69 13 165 27 52 7 234 12 243 7 5 -3 30 -7 55 -8 43 -2 112
-12 137 -20 6 -1 12 -3 15 -3 50 -10 262 -104 286 -127 6 -5 27 -19 47 -30 20
-11 37 -23 37 -27 0 -5 4 -8 10 -8 19 0 210 -183 260 -250 14 -18 35 -44 47
-58 12 -14 27 -37 35 -51 7 -14 21 -35 31 -45 9 -11 17 -25 17 -32 0 -7 8 -18
18 -23 9 -6 13 -11 9 -11 -5 0 1 -13 12 -29 20 -27 92 -169 123 -241 9 -19 24
-55 35 -80 11 -25 34 -90 52 -145 42 -131 40 -125 41 -130 1 -4 25 -74 32 -93
3 -7 66 -7 108 2 14 3 41 7 60 10 55 9 94 16 112 22 9 3 26 7 37 9 12 3 30 7
40 9 60 14 147 40 155 47 6 5 20 9 32 9 13 0 26 5 29 10 4 6 10 8 15 5 5 -3
11 -1 15 5 3 5 15 10 26 10 10 0 19 4 19 8 0 5 6 9 13 9 42 0 356 177 417 234
15 15 30 26 32 23 11 -10 251 241 271 284 6 12 14 22 19 22 4 0 8 7 8 15 0 8
4 15 9 15 11 0 116 214 132 270 7 25 13 47 14 50 1 3 6 23 13 45 6 22 14 56
18 75 10 53 12 317 2 369 -19 100 -30 157 -36 171 -3 8 -6 18 -7 23 -2 4 -3 8
-5 10 -1 1 -3 10 -5 20 -2 10 -7 26 -11 35 -4 9 -8 23 -10 30 -5 28 -114 240
-129 252 -8 7 -15 18 -15 24 0 6 -10 23 -23 38 -66 81 -87 107 -87 112 0 11
-195 197 -250 239 -30 23 -56 45 -58 50 -2 4 -10 7 -17 7 -7 0 -15 4 -17 9
-10 27 -318 200 -488 274 -100 43 -317 120 -370 132 -8 1 -40 10 -71 19 -31 9
-65 18 -75 20 -11 2 -37 9 -59 14 -39 11 -58 15 -120 27 -16 3 -37 8 -45 11
-8 3 -33 8 -55 11 -44 5 -75 9 -120 17 -95 17 -145 24 -215 30 -30 3 -75 8
-100 11 -109 13 -235 18 -522 20 -169 2 -308 1 -310 0z"/>
</g>
</svg>
